<?xml version="1.0" encoding="UTF-8"?>
<svg xmlns="http://www.w3.org/2000/svg" xmlns:xlink="http://www.w3.org/1999/xlink" width="150px" height="150px" viewBox="0 0 150 150" version="1.1">
<g id="surface1">
<path style=" stroke:none;fill-rule:nonzero;fill:rgb(0%,0%,0%);fill-opacity:1;" d="M 103.117188 109.457031 C 120.695312 109.457031 121.460938 122.488281 121.460938 132.160156 L 30.195312 132.160156 C 30.195312 122.289062 30.945312 109.457031 48.519531 109.457031 Z M 103.117188 109.457031 "/>
<path style=" stroke:none;fill-rule:nonzero;fill:rgb(0%,0%,0%);fill-opacity:1;" d="M 69.5 14.683594 L 69.5 21.792969 L 60.746094 21.792969 L 60.746094 32.832031 L 69.5 32.832031 C 69.5 41.378906 67.1875 39.816406 60.8125 43.371094 C 21.390625 29.09375 -0.0664062 73.511719 45.503906 103.625 L 106.070312 103.429688 C 152.5 73.511719 130.589844 29.109375 91.183594 43.597656 C 83.683594 39.878906 82.300781 41.972656 82.300781 32.832031 L 91.234375 32.832031 L 91.234375 21.792969 L 82.300781 21.792969 L 82.300781 14.683594 Z M 100.949219 59.558594 C 111.449219 60.515625 115.527344 72.375 88.070312 89.320312 L 88.070312 65.585938 C 93.15625 60.953125 96.171875 59.132812 100.949219 59.558594 M 52.660156 59.679688 C 57.09375 59.832031 59.214844 61.714844 63.664062 65.769531 L 63.664062 89.488281 C 36.226562 72.558594 40.300781 60.683594 50.800781 59.738281 "/>
</g>
</svg>
