<?xml version="1.0" encoding="UTF-8"?>
<svg xmlns="http://www.w3.org/2000/svg" xmlns:xlink="http://www.w3.org/1999/xlink" width="150px" height="150px" viewBox="0 0 150 150" version="1.1">
<g id="surface1">
<path style=" stroke:none;fill-rule:nonzero;fill:rgb(0%,0%,0%);fill-opacity:1;" d="M 103.117188 109.457031 C 120.695312 109.457031 121.460938 122.488281 121.460938 132.160156 L 30.195312 132.160156 C 30.195312 122.289062 30.945312 109.457031 48.519531 109.457031 Z M 103.117188 109.457031 "/>
<path style=" stroke:none;fill-rule:nonzero;fill:rgb(0%,0%,0%);fill-opacity:1;" d="M 60.320312 15.582031 C 53.636719 15.582031 48.21875 20.648438 48.207031 26.910156 C 48.214844 31.5625 51.25 35.738281 55.871094 37.449219 L 54.371094 67.972656 L 38.363281 43.445312 C 39.75 41.550781 40.488281 39.304688 40.480469 37.007812 C 40.472656 30.753906 35.0625 25.6875 28.382812 25.679688 C 21.699219 25.679688 16.28125 30.75 16.269531 37.007812 C 16.273438 42.527344 20.519531 47.246094 26.328125 48.183594 L 45.503906 103.398438 L 106.363281 103.398438 L 125.488281 48.519531 C 131.460938 47.734375 135.90625 42.957031 135.921875 37.3125 C 135.921875 34.300781 134.644531 31.414062 132.367188 29.285156 C 130.09375 27.15625 127.007812 25.964844 123.792969 25.96875 C 117.101562 25.96875 111.679688 31.046875 111.679688 37.3125 C 111.683594 39.414062 112.316406 41.476562 113.503906 43.265625 L 97.152344 67.957031 L 95.863281 37.402344 C 100.410156 35.664062 103.386719 31.523438 103.394531 26.925781 C 103.394531 20.660156 97.972656 15.582031 91.28125 15.582031 C 84.597656 15.582031 79.179688 20.648438 79.167969 26.910156 C 79.171875 29.859375 80.398438 32.691406 82.59375 34.804688 L 75.761719 67.957031 L 69.238281 34.578125 C 71.292969 32.484375 72.433594 29.75 72.4375 26.910156 C 72.425781 20.648438 67.007812 15.582031 60.320312 15.582031 "/>
</g>
</svg>
