<?xml version="1.0" encoding="UTF-8"?>
<svg xmlns="http://www.w3.org/2000/svg" xmlns:xlink="http://www.w3.org/1999/xlink" width="150px" height="150px" viewBox="0 0 150 150" version="1.1">
<g id="surface1">
<path style="fill-rule:nonzero;fill:rgb(100%,100%,100%);fill-opacity:1;stroke-width:0.386043;stroke-linecap:butt;stroke-linejoin:miter;stroke:rgb(0%,0%,0%);stroke-opacity:1;stroke-miterlimit:4;" d="M 6.545023 294.149911 L 3.200967 294.149911 C 3.246969 292.882006 4.657956 292.208053 4.721929 291.597123 C 4.787099 290.984906 4.499104 290.826965 4.499104 290.826965 C 4.499104 290.826965 4.301915 291.562911 4.051057 291.712878 C 3.799959 291.863102 3.215103 292.004067 3.215103 292.004067 C 3.215103 292.004067 2.804913 292.373969 2.564118 292.347988 C 2.321885 292.323037 2.115113 291.745032 2.115113 291.745032 L 2.935014 290.439056 L 3.351913 289.513015 L 3.743894 289.084977 L 3.912091 288.45707 L 4.385055 289.009094 C 6.985882 289.009094 7.549893 292.361107 6.545023 294.148882 Z M 6.541908 294.177949 C 7.620095 294.177949 7.667056 295.036081 7.667056 295.672992 L 2.06911 295.672992 C 2.06911 295.022962 2.115113 294.177949 3.19306 294.177949 Z M 6.541908 294.177949 " transform="matrix(16.303413,0,0,15.185602,-3.538245,-4357.812167)"/>
</g>
</svg>
