<?xml version="1.0" encoding="UTF-8"?>
<svg xmlns="http://www.w3.org/2000/svg" xmlns:xlink="http://www.w3.org/1999/xlink" width="150px" height="150px" viewBox="0 0 150 150" version="1.1">
<g id="surface1">
<path style="fill-rule:nonzero;fill:rgb(100%,100%,100%);fill-opacity:1;stroke-width:1.511811;stroke-linecap:butt;stroke-linejoin:miter;stroke:rgb(0%,0%,0%);stroke-opacity:1;stroke-miterlimit:4;" d="M 18.874959 10.23374 C 16.700071 10.23374 14.93741 11.997373 14.93741 14.172261 C 14.939354 15.269914 15.399221 16.31701 16.207148 17.06077 L 13.972953 18.020365 L 13.972953 20.349839 L 16.616459 20.342061 C 15.060884 30.392048 10.609022 27.302287 10.609022 32.869302 L 27.266315 32.869302 C 27.266315 27.222564 22.705563 30.637051 21.14221 20.339144 L 23.781826 20.299283 L 23.781826 17.984392 L 21.571938 17.039381 C 22.363336 16.295621 22.813481 15.258247 22.814453 14.172261 C 22.814453 11.996401 21.049848 10.23374 18.874959 10.23374 Z M 18.874959 10.23374 " transform="matrix(4.017807,0,0,4.017807,0,0)"/>
</g>
</svg>
