<?xml version="1.0" encoding="UTF-8"?>
<svg xmlns="http://www.w3.org/2000/svg" xmlns:xlink="http://www.w3.org/1999/xlink" width="150px" height="150px" viewBox="0 0 150 150" version="1.1">
<g id="surface1">
<path style="fill-rule:nonzero;fill:rgb(100%,100%,100%);fill-opacity:1;stroke-width:0.386043;stroke-linecap:butt;stroke-linejoin:miter;stroke:rgb(0%,0%,0%);stroke-opacity:1;stroke-miterlimit:4;" d="M 6.541908 294.177949 C 7.620095 294.177949 7.667056 295.036081 7.667056 295.672992 L 2.06911 295.672992 C 2.06911 295.022962 2.115113 294.177949 3.19306 294.177949 Z M 6.541908 294.177949 " transform="matrix(16.303413,0,0,15.185602,-3.538245,-4357.812167)"/>
<path style="fill-rule:nonzero;fill:rgb(100%,100%,100%);fill-opacity:1;stroke-width:1.511811;stroke-linecap:butt;stroke-linejoin:miter;stroke:rgb(0%,0%,0%);stroke-opacity:1;stroke-miterlimit:4;" d="M 15.014216 3.873382 C 13.347806 3.871437 11.996401 5.222843 11.996401 6.889253 C 11.996401 8.126908 12.753771 9.239144 13.905869 9.693177 L 13.532531 17.80939 L 9.549287 11.284725 C 9.89443 10.78208 10.079154 10.1861 10.079154 9.575537 C 10.078182 7.910099 8.727748 6.560638 7.062311 6.560638 C 5.396873 6.56161 4.047412 7.911072 4.047412 9.575537 C 4.048384 11.043611 5.105203 12.296821 6.550916 12.545713 L 11.323614 27.236175 L 26.471027 27.236175 L 31.231087 12.636131 C 32.717633 12.426128 33.824036 11.155418 33.82598 9.654288 C 33.825008 7.98885 32.475547 6.639389 30.811081 6.639389 C 29.145644 6.639389 27.79521 7.98885 27.79521 9.654288 C 27.797155 10.214295 27.954657 10.762635 28.250216 11.238058 L 24.177526 17.808418 L 23.858633 9.679566 C 24.992258 9.216782 25.734073 8.113296 25.734073 6.889253 C 25.734073 5.223816 24.384612 3.873382 22.719174 3.873382 C 21.053737 3.873382 19.703303 5.222843 19.703303 6.889253 C 19.703303 7.674819 20.009557 8.429273 20.556925 8.992196 L 18.854542 17.80939 L 17.229939 8.929001 C 17.743278 8.372883 18.028143 7.645652 18.030087 6.889253 C 18.030087 5.222843 16.679654 3.873382 15.014216 3.873382 Z M 15.014216 3.873382 " transform="matrix(4.017807,0,0,4.017807,0,0)"/>
</g>
</svg>
