<?xml version="1.0" encoding="UTF-8"?>
<svg xmlns="http://www.w3.org/2000/svg" xmlns:xlink="http://www.w3.org/1999/xlink" width="150px" height="150px" viewBox="0 0 150 150" version="1.1">
<g id="surface1">
<path style=" stroke:none;fill-rule:nonzero;fill:rgb(0%,0%,0%);fill-opacity:1;" d="M 103.121094 109.460938 C 120.691406 109.460938 121.457031 122.480469 121.457031 132.15625 L 30.191406 132.15625 C 30.191406 122.300781 30.949219 109.460938 48.515625 109.460938 Z M 103.121094 109.460938 "/>
<path style=" stroke:none;fill-rule:nonzero;fill:rgb(0%,0%,0%);fill-opacity:1;" d="M 101.199219 103.128906 L 50.417969 103.128906 C 51.109375 84.550781 72.542969 74.671875 73.519531 65.710938 C 74.496094 56.746094 70.128906 54.4375 70.128906 54.4375 C 70.128906 54.4375 67.136719 65.210938 63.320312 67.414062 C 59.507812 69.617188 50.632812 71.683594 50.632812 71.683594 C 50.632812 71.683594 44.402344 77.109375 40.730469 76.730469 C 37.058594 76.351562 33.917969 67.890625 33.917969 67.890625 L 46.382812 48.742188 L 52.699219 35.164062 L 58.660156 28.894531 L 61.214844 19.683594 L 68.390625 27.78125 C 107.894531 27.78125 116.460938 76.914062 101.199219 103.128906 "/>
</g>
</svg>
