<?xml version="1.0" encoding="UTF-8"?>
<svg xmlns="http://www.w3.org/2000/svg" xmlns:xlink="http://www.w3.org/1999/xlink" width="150px" height="150px" viewBox="0 0 150 150" version="1.1">
<g id="surface1">
<path style=" stroke:none;fill-rule:nonzero;fill:rgb(0%,0%,1.176471%);fill-opacity:1;" d="M 103.117188 109.457031 C 120.695312 109.457031 121.460938 122.488281 121.460938 132.160156 L 30.195312 132.160156 C 30.195312 122.289062 30.945312 109.457031 48.519531 109.457031 Z M 103.117188 109.457031 "/>
<path style=" stroke:none;fill-rule:nonzero;fill:rgb(0%,0%,1.176471%);fill-opacity:1;" d="M 106.347656 103.414062 L 97.101562 66.785156 L 54.648438 66.785156 L 45.503906 103.414062 Z M 106.347656 103.414062 "/>
<path style=" stroke:none;fill-rule:nonzero;fill:rgb(0%,0%,1.176471%);fill-opacity:1;" d="M 105.042969 36.019531 L 92 32.648438 L 89.179688 39.316406 L 83.832031 39.285156 L 83.832031 29.808594 L 67.496094 30.066406 L 67.496094 39.285156 L 62.734375 39.285156 L 59.3125 32.664062 L 46.53125 37.328125 C 46.53125 37.328125 46.398438 60.558594 53.117188 60.421875 L 98.457031 60.421875 C 105.171875 60.421875 105.042969 36.035156 105.042969 36.035156 Z M 105.042969 36.019531 "/>
</g>
</svg>
