<?xml version="1.0" encoding="UTF-8"?>
<svg xmlns="http://www.w3.org/2000/svg" xmlns:xlink="http://www.w3.org/1999/xlink" width="150px" height="150px" viewBox="0 0 150 150" version="1.1">
<g id="surface1">
<path style="fill-rule:nonzero;fill:rgb(100%,100%,100%);fill-opacity:1;stroke-width:0.386043;stroke-linecap:butt;stroke-linejoin:miter;stroke:rgb(0%,0%,0%);stroke-opacity:1;stroke-miterlimit:4;" d="M 6.541908 294.177949 C 7.620095 294.177949 7.667056 295.036081 7.667056 295.672992 L 2.06911 295.672992 C 2.06911 295.022962 2.115113 294.177949 3.19306 294.177949 Z M 6.551971 294.164059 C 6.753952 293.872098 7.749957 291.953906 5.802032 289.998929 C 5.802032 289.998929 5.019029 291.087028 4.888928 292.694997 L 4.41189 292.693968 C 4.403025 291.21796 5.422032 289.689991 5.422032 289.689991 C 6.241933 288.030062 3.547903 288.024917 4.292092 289.689991 C 2.017118 291.698987 3.029894 293.908883 3.196894 294.164059 Z M 6.551971 294.164059 " transform="matrix(16.303413,0,0,15.185602,-3.538245,-4357.812167)"/>
</g>
</svg>
